<?xml version="1.0" encoding="UTF-8" standalone="no"?>
<!DOCTYPE svg PUBLIC "-//W3C//DTD SVG 1.1//EN" "http://www.w3.org/Graphics/SVG/1.1/DTD/svg11.dtd">
<svg width="100%" height="100%" viewBox="0 0 38 59" version="1.1" xmlns="http://www.w3.org/2000/svg" xmlns:xlink="http://www.w3.org/1999/xlink" xml:space="preserve" xmlns:serif="http://www.serif.com/" style="fill-rule:evenodd;clip-rule:evenodd;stroke-linejoin:round;stroke-miterlimit:2;">
    <g transform="matrix(1,0,0,1,-10163,-1671)">
        <g transform="matrix(0.234996,0,0,0.234996,9886.6,1495.72)">
            <path id="Amber-Mono" serif:id="Amber Mono" d="M1179.38,827.594C1179.38,820.523 1182.19,813.742 1187.19,808.743L1238.62,757.309C1249.01,746.917 1265.85,746.894 1276.27,757.259L1328.02,808.734C1333.05,813.738 1335.88,820.54 1335.88,827.635L1335.88,916.003C1335.88,923.087 1333.06,929.88 1328.05,934.882L1276.45,986.327C1266.04,996.706 1249.2,996.702 1238.79,986.317L1187.2,934.819C1182.19,929.818 1179.38,923.029 1179.38,915.95L1179.38,827.594ZM1227.05,823.908L1244.66,823.389C1251.88,823.177 1257.61,817.253 1257.59,810.029L1257.55,792.635C1257.53,787.226 1254.25,782.362 1249.24,780.324C1244.23,778.285 1238.49,779.477 1234.7,783.34L1217.14,801.252C1213.33,805.136 1212.27,810.943 1214.44,815.926C1216.62,820.909 1221.61,824.068 1227.05,823.908Z"/>
        </g>
    </g>
</svg>
