<?xml version="1.0" encoding="UTF-8" standalone="no"?>
<!DOCTYPE svg PUBLIC "-//W3C//DTD SVG 1.1//EN" "http://www.w3.org/Graphics/SVG/1.1/DTD/svg11.dtd">
<svg width="100%" height="100%" viewBox="0 0 41 41" version="1.1" xmlns="http://www.w3.org/2000/svg" xmlns:xlink="http://www.w3.org/1999/xlink" xml:space="preserve" xmlns:serif="http://www.serif.com/" style="fill-rule:evenodd;clip-rule:evenodd;stroke-linejoin:round;stroke-miterlimit:2;">
    <g transform="matrix(1,0,0,1,-10229,-1818)">
        <g transform="matrix(-0.740741,9.07146e-17,-9.07146e-17,-0.740741,11636.8,6223.36)">
            <path id="copy" d="M1860.07,5897.07C1860.52,5894.2 1863,5892 1866,5892L1894,5892C1897.31,5892 1900,5894.69 1900,5898L1900,5926C1900,5929 1897.8,5931.48 1894.93,5931.93C1894.63,5931.98 1894.32,5932 1894,5932L1866,5932C1862.69,5932 1860,5929.31 1860,5926L1860,5898C1860,5897.68 1860.02,5897.37 1860.07,5897.07ZM1855,5906L1855,5931C1855,5934.31 1857.69,5937 1861,5937L1886,5937L1886,5940C1886,5943.31 1883.31,5946 1880,5946L1852,5946C1848.69,5946 1846,5943.31 1846,5940L1846,5912C1846,5908.69 1848.69,5906 1852,5906L1855,5906Z"/>
        </g>
    </g>
</svg>
