<?xml version="1.0" encoding="UTF-8" standalone="no"?>
<!DOCTYPE svg PUBLIC "-//W3C//DTD SVG 1.1//EN" "http://www.w3.org/Graphics/SVG/1.1/DTD/svg11.dtd">
<svg width="100%" height="100%" viewBox="0 0 41 41" version="1.1" xmlns="http://www.w3.org/2000/svg" xmlns:xlink="http://www.w3.org/1999/xlink" xml:space="preserve" xmlns:serif="http://www.serif.com/" style="fill-rule:evenodd;clip-rule:evenodd;stroke-linejoin:round;stroke-miterlimit:2;">
    <g transform="matrix(1,0,0,1,-10229,-1879)">
        <g transform="matrix(1,0,0,1,552,0)">
            <path id="looking-glass" d="M9698.4,1907.35C9696.4,1908.39 9694.13,1908.98 9691.72,1908.98C9683.72,1908.98 9677.22,1902.48 9677.22,1894.48C9677.22,1886.47 9683.72,1879.98 9691.72,1879.98C9699.72,1879.98 9706.22,1886.47 9706.22,1894.48C9706.22,1896.85 9705.65,1899.09 9704.64,1901.07C9704.76,1901.16 9704.88,1901.27 9704.99,1901.38L9715.74,1912.13C9717.48,1913.87 9717.48,1916.69 9715.74,1918.42C9714.01,1920.16 9711.19,1920.16 9709.45,1918.42L9698.7,1907.67C9698.6,1907.57 9698.5,1907.46 9698.4,1907.35ZM9691.72,1885.48C9686.75,1885.48 9682.72,1889.51 9682.72,1894.48C9682.72,1899.44 9686.75,1903.48 9691.72,1903.48C9696.69,1903.48 9700.72,1899.44 9700.72,1894.48C9700.72,1889.51 9696.69,1885.48 9691.72,1885.48Z"/>
        </g>
    </g>
</svg>
