<?xml version="1.0" encoding="UTF-8" standalone="no"?>
<!DOCTYPE svg PUBLIC "-//W3C//DTD SVG 1.1//EN" "http://www.w3.org/Graphics/SVG/1.1/DTD/svg11.dtd">
<svg width="100%" height="100%" viewBox="0 0 46 34" version="1.1" xmlns="http://www.w3.org/2000/svg" xmlns:xlink="http://www.w3.org/1999/xlink" xml:space="preserve" xmlns:serif="http://www.serif.com/" style="fill-rule:evenodd;clip-rule:evenodd;stroke-linejoin:round;stroke-miterlimit:2;">
    <g transform="matrix(1,0,0,1,-10155,-1883)">
        <g transform="matrix(1,0,0,1,552,0)">
            <path id="side-bar" d="M9648.13,1887.13L9648.13,1912.28C9648.13,1914.44 9646.37,1916.2 9644.2,1916.2L9607.06,1916.2C9604.89,1916.2 9603.13,1914.44 9603.13,1912.28L9603.13,1887.13C9603.13,1884.96 9604.89,1883.2 9607.06,1883.2L9644.2,1883.2C9646.37,1883.2 9648.13,1884.96 9648.13,1887.13ZM9624.13,1910.94C9624.13,1911.27 9624.26,1911.6 9624.5,1911.83C9624.74,1912.07 9625.06,1912.2 9625.39,1912.2C9628.99,1912.2 9639.26,1912.2 9642.86,1912.2C9643.2,1912.2 9643.52,1912.07 9643.76,1911.83C9644,1911.6 9644.13,1911.27 9644.13,1910.94C9644.13,1906.66 9644.13,1892.75 9644.13,1888.47C9644.13,1888.13 9644,1887.81 9643.76,1887.57C9643.52,1887.34 9643.2,1887.2 9642.86,1887.2C9639.26,1887.2 9628.99,1887.2 9625.39,1887.2C9625.06,1887.2 9624.74,1887.34 9624.5,1887.57C9624.26,1887.81 9624.13,1888.13 9624.13,1888.47C9624.13,1892.75 9624.13,1906.66 9624.13,1910.94ZM9619.13,1888.54C9619.13,1887.99 9618.68,1887.54 9618.13,1887.54L9610.13,1887.54C9609.58,1887.54 9609.13,1887.99 9609.13,1888.54L9609.13,1890.54C9609.13,1891.09 9609.58,1891.54 9610.13,1891.54L9618.13,1891.54C9618.68,1891.54 9619.13,1891.09 9619.13,1890.54L9619.13,1888.54ZM9619.13,1896.7C9619.13,1896.15 9618.68,1895.7 9618.13,1895.7L9610.13,1895.7C9609.58,1895.7 9609.13,1896.15 9609.13,1896.7L9609.13,1898.7C9609.13,1899.26 9609.58,1899.7 9610.13,1899.7L9618.13,1899.7C9618.68,1899.7 9619.13,1899.26 9619.13,1898.7L9619.13,1896.7Z"/>
        </g>
    </g>
</svg>
