<?xml version="1.0" encoding="UTF-8" standalone="no"?>
<!DOCTYPE svg PUBLIC "-//W3C//DTD SVG 1.1//EN" "http://www.w3.org/Graphics/SVG/1.1/DTD/svg11.dtd">
<svg width="100%" height="100%" viewBox="0 0 304 361" version="1.1" xmlns="http://www.w3.org/2000/svg" xmlns:xlink="http://www.w3.org/1999/xlink" xml:space="preserve" xmlns:serif="http://www.serif.com/" style="fill-rule:evenodd;clip-rule:evenodd;stroke-linejoin:round;stroke-miterlimit:2;">
    <g transform="matrix(1,0,0,1,-9774,-1594)">
        <g transform="matrix(1,0,0,1,552,0)">
            <path id="amber-docs" d="M9222,1773.54L9222,1604.5C9222,1601.85 9223.05,1599.3 9224.93,1597.43C9226.8,1595.55 9229.35,1594.5 9232,1594.5L9383,1594.5L9460.62,1675.38L9461.03,1675.72L9460.99,1675.76L9526,1743.5L9526,1944.52C9526,1950.05 9521.52,1954.52 9516,1954.52L9378.94,1954.52L9377.94,1954.54L9377.94,1954.52L9232,1954.52C9230.3,1954.52 9228.69,1954.1 9227.29,1953.35L9227.19,1953.47L9226.42,1952.82C9223.75,1951.03 9222,1947.98 9222,1944.52L9222,1773.54ZM9377.58,1928.13L9376.76,1869.05C9375.83,1869.08 9374.9,1869.1 9373.96,1869.1C9351.94,1869.1 9331.7,1861.29 9315.76,1848.26L9278,1893.12C9304.09,1915.02 9337.53,1928.17 9373.96,1928.17C9375.17,1928.17 9376.38,1928.16 9377.58,1928.13ZM9276.55,1657.17L9314.44,1701.92C9330.57,1688.22 9351.33,1679.98 9373.96,1679.98C9374.02,1679.98 9374.09,1679.98 9374.16,1679.98L9373.34,1620.9C9336.48,1621.05 9302.71,1634.67 9276.55,1657.17ZM9226.07,1634.82L9254.35,1634.82C9257,1634.82 9259.54,1633.77 9261.42,1631.89C9263.29,1630.02 9264.35,1627.48 9264.35,1624.82L9264.35,1598.57L9232,1598.57C9230.43,1598.57 9228.92,1599.19 9227.81,1600.31C9226.69,1601.42 9226.07,1602.93 9226.07,1604.5L9226.07,1634.82ZM9236.92,1629.25C9236.92,1629.25 9233.26,1626.77 9232.23,1624.89C9231.2,1623.01 9229.41,1620.18 9229.72,1615.2C9230.02,1610.22 9233.59,1604.47 9237.77,1603.93C9241.83,1603.4 9245.03,1609.82 9248.48,1615.07C9251.49,1619.66 9251.92,1621.19 9254.33,1621.13C9256.64,1621.08 9257.15,1617.48 9257.43,1613.76C9257.76,1609.45 9254.83,1604.25 9254.83,1604.25C9254.83,1604.25 9260.35,1608.24 9260.61,1616.32C9260.81,1622.17 9257.38,1627.02 9253.21,1627.21C9249.05,1627.4 9245.96,1623.24 9243.02,1618.87C9239.53,1613.68 9239.56,1610.28 9236.73,1610.08C9234.46,1609.93 9231.97,1614.54 9232.53,1620.18C9233.1,1625.8 9236.92,1629.25 9236.92,1629.25ZM9275.18,1893.36C9251.66,1873.1 9234.22,1845.74 9226.07,1814.55L9226.07,1944.52C9226.07,1946.37 9226.92,1948.03 9228.24,1949.11L9275.18,1893.36ZM9456.96,1677.44L9405.66,1623.99C9395.41,1621.58 9386.63,1620.97 9375.34,1620.9L9376.16,1680C9398.72,1680.54 9419.3,1689.26 9435.14,1703.36L9456.96,1677.44ZM9226.07,1636.82L9226.07,1734.53C9234.05,1703.97 9250.95,1677.09 9273.75,1656.96L9256.53,1636.62C9255.82,1636.76 9255.09,1636.82 9254.35,1636.82L9226.07,1636.82ZM9275.05,1658.49C9250.5,1680.17 9232.88,1709.78 9226.07,1743.38L9226.07,1773.54L9281,1773.54C9281.28,1745.5 9293.59,1720.37 9312.93,1703.23L9275.05,1658.49ZM9373.03,1598.57L9266.35,1598.57L9266.35,1624.82C9266.35,1628.01 9265.08,1631.06 9262.83,1633.31C9261.63,1634.51 9260.2,1635.43 9258.65,1636.03L9275.26,1655.65C9301.76,1632.86 9335.97,1619.06 9373.32,1618.9L9373.03,1598.57ZM9226.07,1775.54L9226.07,1805.69C9233.01,1839.94 9251.18,1870.04 9276.47,1891.83L9314.23,1846.98C9294.15,1829.83 9281.29,1804.2 9281,1775.54L9226.07,1775.54ZM9230.01,1950.11C9230.64,1950.33 9231.3,1950.45 9232,1950.45L9377.89,1950.45L9377.61,1930.13C9376.39,1930.16 9375.18,1930.17 9373.96,1930.17C9337.04,1930.17 9303.15,1916.84 9276.71,1894.65L9230.01,1950.11ZM9521.93,1773.54L9521.93,1745.14L9458.35,1678.89L9436.62,1704.71C9455.01,1721.8 9466.64,1746.29 9466.92,1773.54L9521.93,1773.54ZM9327.61,1720.57L9314.22,1704.76C9295.32,1721.53 9283.28,1746.11 9283,1773.54L9315.19,1773.54L9315.19,1739.62C9315.19,1735.37 9316.88,1731.3 9319.88,1728.3L9327.61,1720.57ZM9315.19,1775.54L9283,1775.54C9283.29,1803.59 9295.87,1828.66 9315.52,1845.45L9328.84,1829.62L9319.89,1820.68C9316.89,1817.68 9315.19,1813.61 9315.19,1809.36L9315.19,1775.54ZM9330.26,1831.04L9317.05,1846.73C9331.17,1858.27 9348.75,1865.62 9367.94,1866.9C9366.03,1866.12 9364.24,1864.95 9362.69,1863.41L9330.26,1831.04ZM9380.07,1866.89C9400.24,1865.53 9418.61,1857.47 9433.06,1844.88L9419.69,1829.12L9385.3,1863.41C9383.75,1864.95 9381.97,1866.11 9380.07,1866.89ZM9421.11,1827.7L9434.56,1843.55C9452.96,1826.8 9464.64,1802.55 9464.92,1775.54L9432.81,1775.54L9432.81,1809.4C9432.81,1813.65 9431.11,1817.73 9428.1,1820.73L9421.11,1827.7ZM9432.81,1773.54L9464.92,1773.54C9464.64,1746.91 9453.29,1722.96 9435.33,1706.24L9421.92,1722.17L9428.09,1728.3C9431.11,1731.3 9432.81,1735.38 9432.81,1739.64L9432.81,1773.54ZM9420.5,1720.75L9433.85,1704.89C9419.28,1691.9 9400.6,1683.57 9380.07,1682.18C9381.92,1682.96 9383.65,1684.1 9385.16,1685.6L9420.5,1720.75ZM9367.65,1682.2C9347.97,1683.57 9330,1691.33 9315.73,1703.44L9329.03,1719.15L9362.56,1685.62C9364.07,1684.12 9365.8,1682.98 9367.65,1682.2ZM9319.73,1742.31L9319.73,1806.67C9319.73,1810.59 9321.29,1814.35 9324.06,1817.12L9363.57,1856.56C9369.33,1862.31 9378.66,1862.31 9384.42,1856.56L9423.93,1817.17C9426.71,1814.4 9428.27,1810.63 9428.27,1806.71L9428.27,1742.33C9428.27,1738.4 9426.7,1734.63 9423.92,1731.86L9384.3,1692.45C9378.53,1686.71 9369.2,1686.72 9363.44,1692.48L9324.05,1731.87C9321.28,1734.63 9319.73,1738.39 9319.73,1742.31ZM9346.01,1738.66C9342.75,1738.76 9339.76,1736.87 9338.45,1733.88C9337.14,1730.88 9337.78,1727.4 9340.07,1725.07L9360.21,1704.52C9362.49,1702.2 9365.93,1701.49 9368.94,1702.71C9371.95,1703.93 9373.92,1706.85 9373.93,1710.1L9373.98,1730.05C9373.99,1734.39 9370.55,1737.94 9366.22,1738.07L9346.01,1738.66ZM9351.03,1733.82L9364.24,1733.44C9367.12,1733.35 9369.42,1730.99 9369.41,1728.1L9369.37,1715.36C9369.37,1713.21 9368.07,1711.28 9366.09,1710.46C9364.1,1709.63 9361.82,1710.09 9360.3,1711.6L9347.12,1724.73C9345.57,1726.27 9345.12,1728.59 9345.98,1730.6C9346.85,1732.6 9348.84,1733.88 9351.03,1733.82ZM9375.32,1618.9C9385.69,1618.96 9393.97,1619.48 9403.17,1621.39L9381.26,1598.57L9375.03,1598.57L9375.32,1618.9ZM9379.89,1950.45L9516,1950.45C9517.91,1950.45 9519.6,1949.56 9520.69,1948.16L9473.58,1892.63C9448.13,1914.86 9415.43,1928.74 9379.61,1930.07L9379.89,1950.45ZM9521.68,1946.24C9521.84,1945.69 9521.93,1945.12 9521.93,1944.52L9521.93,1814.22C9514.09,1844.51 9497.5,1871.19 9475.07,1891.3L9521.68,1946.24ZM9473.78,1889.78C9497.96,1868.08 9515.26,1838.63 9521.93,1805.27L9521.93,1775.54L9466.92,1775.54C9466.64,1803.16 9454.69,1827.96 9435.85,1845.07L9473.78,1889.78ZM9472.28,1891.1L9434.36,1846.4C9419.24,1859.56 9399.93,1867.87 9378.76,1868.97L9379.58,1928.07C9414.92,1926.75 9447.18,1913.05 9472.28,1891.1Z"/>
        </g>
    </g>
</svg>
