<?xml version="1.0" encoding="UTF-8" standalone="no"?>
<!DOCTYPE svg PUBLIC "-//W3C//DTD SVG 1.1//EN" "http://www.w3.org/Graphics/SVG/1.1/DTD/svg11.dtd">
<svg width="100%" height="100%" viewBox="0 0 304 361" version="1.1" xmlns="http://www.w3.org/2000/svg" xmlns:xlink="http://www.w3.org/1999/xlink" xml:space="preserve" xmlns:serif="http://www.serif.com/" style="fill-rule:evenodd;clip-rule:evenodd;stroke-linejoin:round;stroke-miterlimit:2;">
    <g transform="matrix(1,0,0,1,-9775,-1189)">
        <g transform="matrix(1,0,0,1,-151,628)">
            <path id="blueprint" d="M10230,710.5L10230,911.523C10230,917.046 10225.5,921.523 10220,921.523L9936,921.523C9930.48,921.523 9926,917.046 9926,911.523L9926,571.5C9926,568.848 9927.05,566.304 9928.93,564.429C9930.8,562.554 9933.35,561.5 9936,561.5L10087,561.5L10230,710.5ZM10077,565.57L9970.34,565.57C9970.34,565.624 9970.35,565.679 9970.35,565.735L9970.35,592.235C9970.35,595.418 9969.08,598.47 9966.83,600.72C9965.82,601.729 9964.65,602.54 9963.38,603.128L9979.93,622.49C10006.3,600.045 10040.3,586.477 10077.3,586.314L10077,565.57ZM10108.1,589.332L10085.3,565.57L10079,565.57L10079.3,586.319C10089.1,586.404 10098.8,587.437 10108.1,589.332ZM10160.9,644.401L10110.5,591.905C10100.5,589.648 10090,588.415 10079.3,588.319L10080.1,647.413C10102.6,647.932 10123.1,656.567 10138.9,670.544L10160.9,644.401ZM10225.9,740.536L10225.9,712.137L10162.3,645.852L10140.4,671.885C10158.8,688.896 10170.5,713.332 10170.9,740.536L10225.9,740.536ZM10225.9,772.685L10225.9,742.536L10170.9,742.536C10170.8,769.654 10159.4,794.078 10141.2,811.225L10179.3,855.803C10202.7,834.243 10219.4,805.338 10225.9,772.685ZM10225.9,910.37L10225.9,781.636C10218.3,811.226 10202.2,837.381 10180.6,857.325L10225.9,910.37ZM10083.8,917.454L10220,917.454C10222.7,917.454 10225,915.647 10225.7,913.176L10179.1,858.671C10153.4,881.729 10120.1,896.158 10083.5,897.483L10083.8,917.454ZM9933.71,916.996C9934.42,917.291 9935.19,917.454 9936,917.454L10081.8,917.454L10081.5,897.543C10080.3,897.57 10079.1,897.583 10078,897.583C10040.9,897.583 10006.8,884.117 9980.31,861.729L9933.71,916.996ZM9930.07,781.957L9930.07,911.523C9930.07,913.262 9930.82,914.826 9932.01,915.911L9978.79,860.428C9955.46,840.2 9938.17,812.975 9930.07,781.957ZM9930.07,742.536L9930.07,773.099C9936.98,807.171 9954.99,837.136 9980.08,858.899L10017.9,814.077C9997.9,796.845 9985.17,771.195 9984.99,742.536L9930.07,742.536ZM9930.07,710.797L9930.07,740.536L9985,740.536C9985.41,712.245 9998.06,686.948 10017.8,669.881L9979.71,625.315C9954.81,647.052 9936.94,676.891 9930.07,710.797ZM9930.07,604.235L9930.07,701.939C9938.13,671.088 9955.27,643.989 9978.41,623.795L9961.37,603.849C9960.39,604.103 9959.38,604.235 9958.35,604.235L9930.07,604.235ZM9930.07,602.235L9958.35,602.235C9961,602.235 9963.54,601.182 9965.42,599.306C9967.29,597.431 9968.35,594.887 9968.35,592.235L9968.35,565.735L9934.61,565.735C9933.56,565.989 9932.59,566.529 9931.81,567.307C9930.69,568.419 9930.07,569.927 9930.07,571.5L9930.07,602.235ZM10139.9,809.704C10157.6,792.923 10168.8,769.042 10168.9,742.536L10082.5,742.536L10139.9,809.704ZM10168.9,740.536C10168.5,713.948 10157.1,690.06 10139.1,673.415L10082.5,740.536L10168.9,740.536ZM10020.7,813.839C10036.3,826.761 10056.3,834.509 10078,834.509C10078.9,834.509 10079.7,834.496 10080.6,834.469L10079.4,744.176L10020.7,813.839ZM9986.99,742.536C9987.17,770.579 9999.62,795.682 10019.2,812.549L10078.2,742.536L9986.99,742.536ZM10078.1,649.388C10078.1,649.388 10078,649.388 10078,649.388C10056.2,649.388 10036.3,657.156 10020.6,670.109L10079.3,738.83L10078.1,649.388ZM10083.5,895.483C10119.6,894.164 10152.5,879.914 10177.8,857.15L10139.7,812.585C10124.4,826.474 10104.5,835.279 10082.7,836.389L10083.5,895.483ZM10077.3,588.314C10040.8,588.471 10007.3,601.86 9981.23,624.01L10019.3,668.589C10035.3,655.336 10055.7,647.388 10078,647.388C10078,647.388 10078.1,647.388 10078.1,647.388L10077.3,588.314ZM10137.6,672.073C10122.1,658.396 10102.1,649.94 10080.1,649.414L10081.3,738.788L10137.6,672.073ZM10019.1,671.401C9999.78,688.102 9987.41,712.856 9987,740.536L10078.2,740.536L10019.1,671.401ZM9981.6,860.2C10007.8,882.293 10041.3,895.583 10078,895.583C10079.1,895.583 10080.3,895.57 10081.5,895.543L10080.7,836.469C10079.8,836.495 10078.9,836.508 10078,836.508C10055.8,836.508 10035.4,828.584 10019.4,815.368L9981.6,860.2ZM10082.6,834.388C10104,833.285 10123.4,824.659 10138.4,811.064L10081.4,744.337L10082.6,834.388ZM9940.92,596.661C9940.92,596.661 9937.26,594.182 9936.23,592.3C9935.2,590.418 9933.41,587.589 9933.72,582.612C9934.02,577.636 9937.59,571.878 9941.77,571.339C9945.83,570.816 9949.03,577.234 9952.48,582.484C9955.49,587.071 9955.92,588.603 9958.33,588.545C9960.64,588.488 9961.15,584.895 9961.43,581.173C9961.76,576.859 9958.83,571.658 9958.83,571.658C9958.83,571.658 9964.35,575.652 9964.61,583.731C9964.81,589.586 9961.38,594.432 9957.21,594.622C9953.05,594.812 9949.96,590.649 9947.02,586.282C9943.53,581.096 9943.56,577.687 9940.73,577.494C9938.46,577.339 9935.97,581.951 9936.53,587.588C9937.1,593.21 9940.92,596.661 9940.92,596.661Z"/>
        </g>
    </g>
</svg>
