<?xml version="1.0" encoding="UTF-8" standalone="no"?>
<!DOCTYPE svg PUBLIC "-//W3C//DTD SVG 1.1//EN" "http://www.w3.org/Graphics/SVG/1.1/DTD/svg11.dtd">
<svg width="100%" height="100%" viewBox="0 0 40 40" version="1.1" xmlns="http://www.w3.org/2000/svg" xmlns:xlink="http://www.w3.org/1999/xlink" xml:space="preserve" xmlns:serif="http://www.serif.com/" style="fill-rule:evenodd;clip-rule:evenodd;stroke-linejoin:round;stroke-miterlimit:2;">
    <g transform="matrix(1,0,0,1,-10236,-1617)">
        <g transform="matrix(1,0,0,1,0,14)">
            <path id="cross" d="M10256.4,1616.64C10256.4,1616.64 10263.7,1609.38 10267.4,1605.68C10268.5,1604.5 10270.4,1604.5 10271.6,1605.68C10272.3,1606.36 10273.1,1607.12 10273.7,1607.8C10274.9,1608.97 10274.9,1610.87 10273.7,1612.04C10270,1615.74 10262.8,1623 10262.8,1623C10262.8,1623 10270,1630.26 10273.7,1633.96C10274.9,1635.13 10274.9,1637.03 10273.7,1638.2C10273.1,1638.88 10272.3,1639.64 10271.6,1640.32C10270.4,1641.5 10268.5,1641.5 10267.4,1640.32C10263.7,1636.62 10256.4,1629.36 10256.4,1629.36C10256.4,1629.36 10249.2,1636.62 10245.5,1640.32C10244.3,1641.5 10242.4,1641.5 10241.2,1640.32C10240.5,1639.64 10239.8,1638.88 10239.1,1638.2C10237.9,1637.03 10237.9,1635.13 10239.1,1633.96C10242.8,1630.26 10250,1623 10250,1623C10250,1623 10242.8,1615.74 10239.1,1612.04C10237.9,1610.87 10237.9,1608.97 10239.1,1607.8C10239.8,1607.12 10240.5,1606.36 10241.2,1605.68C10242.4,1604.5 10244.3,1604.5 10245.5,1605.68C10249.2,1609.38 10256.4,1616.64 10256.4,1616.64Z"/>
        </g>
    </g>
</svg>
