<?xml version="1.0" encoding="UTF-8"?>
<svg width="171px" height="171px" viewBox="0 0 171 171" version="1.1" xmlns="http://www.w3.org/2000/svg" xmlns:xlink="http://www.w3.org/1999/xlink">
    <title>example@1x</title>
    <g id="example" stroke="none" stroke-width="1" fill="none" fill-rule="evenodd">
        <g id="Group" transform="translate(8, 9)" fill="#008DFF" fill-rule="nonzero">
            <path d="M59.5,0 C92.3609426,0 119,26.6390574 119,59.5 C119,92.3609426 92.3609426,119 59.5,119 C26.6390574,119 0,92.3609426 0,59.5 C0,26.6390574 26.6390574,0 59.5,0 Z M59.5,20 C37.6847524,20 20,37.6847524 20,59.5 C20,81.3152476 37.6847524,99 59.5,99 C81.3152476,99 99,81.3152476 99,59.5 C99,37.6847524 81.3152476,20 59.5,20 Z" id="Oval"></path>
            <path d="M93.4899078,90.4899078 C97.3951507,86.5846649 103.726801,86.5846649 107.632043,90.4899078 L152.510092,135.367957 C156.415335,139.273199 156.415335,145.604849 152.510092,149.510092 C148.604849,153.415335 142.273199,153.415335 138.367957,149.510092 L93.4899078,104.632043 C89.5846649,100.726801 89.5846649,94.3951507 93.4899078,90.4899078 Z" id="Line-2"></path>
            <path d="M59.9957759,38 C62.7571986,37.9976689 64.9976653,40.2343531 65,42.9957759 C65.0023311,45.7571986 62.7656469,47.9976653 60.0042241,48 C51.6644577,48.0070439 47.3949408,51.8285727 45.9351331,60.8027832 C45.4917682,63.528382 42.9228156,65.3784981 40.1972168,64.9351331 C37.471618,64.4917682 35.6215019,61.9228156 36.0648669,59.1972168 C38.2950103,45.4873447 46.6474763,38.0112788 59.9957759,38 Z" id="Path-2"></path>
        </g>
    </g>
</svg>