<?xml version="1.0" encoding="UTF-8" standalone="no"?>
<!DOCTYPE svg PUBLIC "-//W3C//DTD SVG 1.1//EN" "http://www.w3.org/Graphics/SVG/1.1/DTD/svg11.dtd">
<svg width="100%" height="100%" viewBox="0 0 1000 1000" version="1.1" xmlns="http://www.w3.org/2000/svg" xmlns:xlink="http://www.w3.org/1999/xlink" xml:space="preserve" xmlns:serif="http://www.serif.com/" style="fill-rule:evenodd;clip-rule:evenodd;stroke-linejoin:round;stroke-miterlimit:2;">
    <g transform="matrix(1,0,0,1,-1050,0)">
        <rect id="Artboard2" x="1050" y="0" width="1000" height="1000" style="fill:none;"/>
        <g id="Artboard21" serif:id="Artboard2">
            <g transform="matrix(1.744396,0,0,1.744396,-1153.813684,-372.197963)">
                <path d="M1723.497,469.665L1723.497,680.012C1723.497,691.884 1713.873,701.509 1702,701.509L1398,701.509C1386.127,701.509 1376.503,691.884 1376.503,680.012L1376.503,319.988C1376.503,308.116 1386.127,298.491 1398,298.491L1558.97,298.491C1564.841,298.491 1570.457,300.892 1574.513,305.136L1717.542,454.813C1721.364,458.813 1723.497,464.132 1723.497,469.665ZM1680.503,478.285L1549.779,341.486L1419.497,341.486L1419.497,658.514L1680.503,658.514L1680.503,478.285Z"/>
            </g>
            <g transform="matrix(-1.744396,-0,0,-1.744396,4534.609877,1005.26986)">
                <path d="M1558.97,298.491L1702,298.491C1713.873,298.491 1723.497,308.116 1723.497,319.988L1723.497,469.665C1723.497,478.449 1718.154,486.349 1710.001,489.618C1701.848,492.887 1692.526,490.867 1686.458,484.517L1543.428,334.84C1537.483,328.618 1535.821,319.45 1539.204,311.537C1542.588,303.623 1550.364,298.491 1558.97,298.491ZM1609.248,341.486L1680.503,416.052L1680.503,341.486L1609.248,341.486Z"/>
            </g>
        </g>
    </g>
</svg>
