<?xml version="1.0" encoding="UTF-8" standalone="no"?>
<!DOCTYPE svg PUBLIC "-//W3C//DTD SVG 1.1//EN" "http://www.w3.org/Graphics/SVG/1.1/DTD/svg11.dtd">
<svg width="100%" height="100%" viewBox="0 0 800 800" version="1.1" xmlns="http://www.w3.org/2000/svg" xmlns:xlink="http://www.w3.org/1999/xlink" xml:space="preserve" xmlns:serif="http://www.serif.com/" style="fill-rule:evenodd;clip-rule:evenodd;stroke-linejoin:round;stroke-miterlimit:2;">
    <path d="M399.966,45.334C204.142,45.334 45.332,204.123 45.332,400.012C45.332,556.688 146.946,689.632 287.88,736.555C305.625,739.797 312.091,728.843 312.091,719.44C312.091,711.013 311.787,688.72 311.612,659.131C212.961,680.555 192.146,611.579 192.146,611.579C176.012,570.603 152.759,559.691 152.759,559.691C120.557,537.701 155.197,538.139 155.197,538.139C190.796,540.64 209.52,574.693 209.52,574.693C241.156,628.885 292.54,613.232 312.745,604.155C315.967,581.248 325.133,565.616 335.258,556.752C256.506,547.781 173.704,517.367 173.704,381.462C173.704,342.728 187.53,311.092 210.217,286.293C206.559,277.323 194.388,241.267 213.701,192.43C213.701,192.43 243.463,182.894 311.22,228.769C339.503,220.909 369.854,216.99 400.01,216.837C430.143,216.99 460.473,220.909 488.799,228.769C556.512,182.894 586.229,192.43 586.229,192.43C605.589,241.267 593.419,277.323 589.781,286.293C612.512,311.092 626.229,342.728 626.229,381.462C626.229,517.715 543.296,547.696 464.305,556.469C477.02,567.424 488.363,589.067 488.363,622.16C488.363,669.557 487.928,707.813 487.928,719.44C487.928,728.933 494.329,739.973 512.314,736.507C653.141,689.504 754.667,556.667 754.667,400.012C754.667,204.123 595.856,45.334 399.966,45.334Z"/>
</svg>
