<?xml version="1.0" encoding="UTF-8" standalone="no"?>
<!DOCTYPE svg PUBLIC "-//W3C//DTD SVG 1.1//EN" "http://www.w3.org/Graphics/SVG/1.1/DTD/svg11.dtd">
<svg width="100%" height="100%" viewBox="0 0 1000 1000" version="1.1" xmlns="http://www.w3.org/2000/svg" xmlns:xlink="http://www.w3.org/1999/xlink" xml:space="preserve" xmlns:serif="http://www.serif.com/" style="fill-rule:evenodd;clip-rule:evenodd;stroke-linejoin:round;stroke-miterlimit:2;">
    <rect id="Artboard1" x="0" y="0" width="1000" height="1000" style="fill:none;"/>
    <g id="Artboard11" serif:id="Artboard1">
        <g transform="matrix(1,0,-0.168508,1,84.254144,0)">
            <g transform="matrix(0.572414,0,0,1.453815,229.918311,-242.899598)">
                <path d="M315,290.546L315,731.454C315,747.209 282.514,760 242.5,760C202.486,760 170,747.209 170,731.454L170,290.546C170,274.791 202.486,262 242.5,262C282.514,262 315,274.791 315,290.546Z"/>
            </g>
            <g transform="matrix(0.572414,0,0,1.453815,492.461,-242.899598)">
                <path d="M315,290.546L315,731.454C315,747.209 282.514,760 242.5,760C202.486,760 170,747.209 170,731.454L170,290.546C170,274.791 202.486,262 242.5,262C282.514,262 315,274.791 315,290.546Z"/>
            </g>
            <g transform="matrix(0,0.572414,-1.453815,0,1242.899598,229.918311)">
                <path d="M315,291.356L315,730.644C315,746.846 282.514,760 242.5,760C202.486,760 170,746.846 170,730.644L170,291.356C170,275.154 202.486,262 242.5,262C282.514,262 315,275.154 315,291.356Z"/>
            </g>
            <g transform="matrix(0,0.572414,-1.453815,0,1242.899598,492.461)">
                <path d="M315,291.356L315,730.644C315,746.846 282.514,760 242.5,760C202.486,760 170,746.846 170,730.644L170,291.356C170,275.154 202.486,262 242.5,262C282.514,262 315,275.154 315,291.356Z"/>
            </g>
        </g>
    </g>
</svg>
