<?xml version="1.0" encoding="UTF-8" standalone="no"?>
<!DOCTYPE svg PUBLIC "-//W3C//DTD SVG 1.1//EN" "http://www.w3.org/Graphics/SVG/1.1/DTD/svg11.dtd">
<svg width="100%" height="100%" viewBox="0 0 55 41" version="1.1" xmlns="http://www.w3.org/2000/svg" xmlns:xlink="http://www.w3.org/1999/xlink" xml:space="preserve" xmlns:serif="http://www.serif.com/" style="fill-rule:evenodd;clip-rule:evenodd;stroke-linejoin:round;stroke-miterlimit:2;">
    <g transform="matrix(1,0,0,1,-10229,-1749)">
        <g transform="matrix(1,-5.90043e-33,1.60104e-33,1,552,-2.27374e-13)">
            <path id="link" d="M9726,1769.99L9726,1756.59C9726,1755.2 9724.87,1754.07 9723.49,1754.07L9696.68,1754.07C9695.29,1754.07 9694.17,1755.2 9694.17,1756.59L9694.17,1759.1L9689.14,1759.1L9689.14,1756.59C9689.14,1752.43 9692.52,1749.05 9696.68,1749.05L9723.49,1749.05C9727.64,1749.05 9731.02,1752.43 9731.02,1756.59L9731.02,1769.99C9731.02,1774.15 9727.64,1777.53 9723.49,1777.53L9696.68,1777.53C9692.52,1777.53 9689.14,1774.15 9689.14,1769.99L9689.14,1767.48L9694.17,1767.48L9694.17,1769.99C9694.17,1771.38 9695.29,1772.5 9696.68,1772.5L9723.49,1772.5C9724.87,1772.5 9726,1771.38 9726,1769.99ZM9677.41,1781.72L9677.41,1768.31C9677.41,1764.16 9680.79,1760.77 9684.95,1760.77L9711.76,1760.77C9715.91,1760.77 9719.3,1764.16 9719.3,1768.31L9719.3,1770.83L9714.27,1770.83L9714.27,1768.31C9714.27,1766.93 9713.14,1765.8 9711.76,1765.8L9684.95,1765.8C9683.57,1765.8 9682.44,1766.93 9682.44,1768.31L9682.44,1781.72C9682.44,1783.1 9683.57,1784.23 9684.95,1784.23L9711.76,1784.23C9713.14,1784.23 9714.27,1783.1 9714.27,1781.72L9714.27,1779.2L9719.3,1779.2L9719.3,1781.72C9719.3,1785.87 9715.91,1789.26 9711.76,1789.26L9684.95,1789.26C9680.79,1789.26 9677.41,1785.87 9677.41,1781.72Z"/>
        </g>
    </g>
</svg>
