<?xml version="1.0" encoding="UTF-8" standalone="no"?><!DOCTYPE svg PUBLIC "-//W3C//DTD SVG 1.1//EN" "http://www.w3.org/Graphics/SVG/1.1/DTD/svg11.dtd"><svg width="100%" height="100%" viewBox="0 0 376 376" version="1.1" xmlns="http://www.w3.org/2000/svg" xmlns:xlink="http://www.w3.org/1999/xlink" xml:space="preserve" xmlns:serif="http://www.serif.com/" style="fill-rule:evenodd;clip-rule:evenodd;stroke-linejoin:round;stroke-miterlimit:2;"><rect id="Artboard1" x="0" y="0" width="376" height="376" style="fill:none;"/><g id="Artboard11" serif:id="Artboard1"><g><path d="M349.039,188.788c0,-19.601 -15.851,-35.168 -35.168,-35.168c-9.511,0 -18.161,3.745 -24.502,9.801c-24.212,-17.296 -57.364,-28.537 -94.262,-29.977l16.141,-75.526l52.464,11.241c0.58,13.261 11.531,23.927 25.082,23.927c13.836,0 25.077,-11.241 25.077,-25.082c0,-13.836 -11.241,-25.077 -25.077,-25.077c-9.801,0 -18.452,5.765 -22.487,14.126l-58.514,-12.396c-1.73,-0.29 -3.46,0 -4.616,0.865c-1.44,0.865 -2.305,2.305 -2.59,4.035l-17.877,84.171c-37.473,1.155 -71.2,12.396 -95.702,29.982c-6.597,-6.301 -15.38,-9.814 -24.502,-9.801c-19.601,0 -35.168,15.851 -35.168,35.168c0,14.411 8.645,26.517 20.757,31.997c-0.58,3.455 -0.865,6.915 -0.865,10.666c0,54.189 63.13,98.297 140.961,98.297c77.831,0 140.961,-43.818 140.961,-98.297c0,-3.46 -0.29,-7.211 -0.865,-10.666c12.106,-5.481 20.751,-17.877 20.751,-32.288Zm-241.563,25.077c0,-13.836 11.241,-25.077 25.082,-25.077c13.836,0 25.077,11.241 25.077,25.077c0,13.836 -11.241,25.082 -25.077,25.082c-13.841,0.285 -25.082,-11.246 -25.082,-25.082Zm140.386,66.59c-17.296,17.296 -50.159,18.452 -59.669,18.452c-9.801,0 -42.663,-1.445 -59.675,-18.452c-2.59,-2.595 -2.59,-6.631 0,-9.226c2.595,-2.59 6.631,-2.59 9.226,0c10.956,10.956 34.018,14.701 50.449,14.701c16.431,0 39.778,-3.745 50.444,-14.701c2.595,-2.59 6.631,-2.59 9.226,0c2.305,2.595 2.305,6.631 0,9.226Zm-4.616,-41.223c-13.836,0 -25.077,-11.241 -25.077,-25.077c0,-13.836 11.241,-25.077 25.077,-25.077c13.841,0 25.082,11.241 25.082,25.077c0,13.546 -11.241,25.077 -25.082,25.077Z" style="fill:#ff5f00;fill-rule:nonzero;"/></g></g></svg>