<?xml version="1.0" encoding="UTF-8" standalone="no"?>
<!DOCTYPE svg PUBLIC "-//W3C//DTD SVG 1.1//EN" "http://www.w3.org/Graphics/SVG/1.1/DTD/svg11.dtd">
<svg width="100%" height="100%" viewBox="0 0 1000 1000" version="1.1" xmlns="http://www.w3.org/2000/svg" xmlns:xlink="http://www.w3.org/1999/xlink" xml:space="preserve" xmlns:serif="http://www.serif.com/" style="fill-rule:evenodd;clip-rule:evenodd;stroke-linejoin:round;stroke-miterlimit:2;">
    <g transform="matrix(1,0,0,1,-2092.855585,0)">
        <g id="Scroll" transform="matrix(1,0,0,1,1042.855585,0)">
            <rect x="1050" y="0" width="1000" height="1000" style="fill:none;"/>
            <g transform="matrix(1,0,0,1,-1042.855585,0)">
                <path d="M2312.974,410.731C2312.974,422.843 2306.77,434.111 2296.536,440.588C2286.301,447.065 2273.462,447.849 2262.516,442.664C2217.1,420.908 2185.683,374.508 2185.683,320.828C2185.683,246.362 2246.14,185.905 2320.606,185.905L2695.932,185.905C2770.398,185.905 2830.855,246.362 2830.855,320.828L2830.855,582.327L2862.437,582.327C2936.903,582.327 2997.36,642.783 2997.36,717.249C2997.36,791.715 2936.903,852.172 2862.437,852.172L2487.111,852.172C2485.66,852.172 2484.214,852.149 2482.774,852.104C2481.334,852.149 2479.888,852.172 2478.437,852.172L2478.437,851.897C2408.006,847.42 2352.188,788.802 2352.188,717.249L2352.018,344.547C2352.009,325.244 2367.541,309.532 2386.843,309.318L2387.417,309.312C2396.823,309.208 2405.88,312.871 2412.569,319.486C2419.257,326.101 2423.021,335.117 2423.021,344.524L2423.021,717.249C2423.021,749.68 2447.161,776.517 2478.437,780.756C2479.868,780.95 2481.314,781.096 2482.774,781.194C2516.127,778.961 2542.526,751.164 2542.526,717.249C2542.526,690.504 2526.108,667.562 2502.808,657.964C2488.091,651.971 2478.469,637.664 2478.469,621.774L2478.437,621.773C2478.437,611.335 2482.586,601.326 2489.971,593.95C2497.355,586.574 2507.37,582.437 2517.807,582.449C2595.437,582.71 2760.022,583.297 2760.022,583.297L2760.022,320.828C2760.022,285.456 2731.304,256.739 2695.932,256.739L2320.606,256.739C2285.234,256.739 2256.517,285.456 2256.517,320.828C2256.517,346.287 2271.394,368.299 2292.921,378.637C2305.176,384.515 2312.973,396.902 2312.973,410.494C2312.974,410.573 2312.974,410.652 2312.974,410.731ZM2597.174,781.339L2862.437,781.339C2897.809,781.339 2926.526,752.621 2926.526,717.249C2926.526,681.877 2897.809,653.16 2862.437,653.16L2597.174,653.16C2607.497,672.229 2613.36,694.06 2613.36,717.249C2613.36,740.439 2607.497,762.269 2597.174,781.339Z"/>
            </g>
            <g transform="matrix(1,0,0,1,-1042.855585,0)">
                <path d="M2312.974,384.467L2312.974,455.538L2312.974,384.467Z"/>
            </g>
        </g>
    </g>
</svg>
