<?xml version="1.0" encoding="UTF-8" standalone="no"?>
<!DOCTYPE svg PUBLIC "-//W3C//DTD SVG 1.1//EN" "http://www.w3.org/Graphics/SVG/1.1/DTD/svg11.dtd">
<svg width="100%" height="100%" viewBox="0 0 2053 1000" version="1.1" xmlns="http://www.w3.org/2000/svg" xmlns:xlink="http://www.w3.org/1999/xlink" xml:space="preserve" xmlns:serif="http://www.serif.com/" style="fill-rule:evenodd;clip-rule:evenodd;stroke-linecap:round;stroke-linejoin:round;stroke-miterlimit:1.5;">
    <g transform="matrix(1,0,0,1,0,-1050)">
        <g id="Artboard3" transform="matrix(2.053,0,0,1,0,0)">
            <rect x="0" y="1050" width="1000" height="1000" style="fill:none;"/>
            <g transform="matrix(0.670922,0,0,0.670922,121.582098,506.04773)">
                <g transform="matrix(0.487092,0,0,0.895093,-11.018173,1108.450247)">
                    <rect x="383" y="368.729" width="235" height="262.543" style="fill:none;stroke:black;stroke-width:79.03px;"/>
                </g>
                <g transform="matrix(0.487092,0,0,0.895093,103.448461,873.450247)">
                    <path d="M500.502,368.729C565.394,368.729 618,427.5 618,499.998L618,500.002C618,572.5 565.394,631.271 500.502,631.271L383,631.271L383,499.998C383,427.5 435.606,368.729 500.498,368.729L500.502,368.729Z" style="fill:none;stroke:black;stroke-width:79.03px;"/>
                </g>
                <g transform="matrix(0,-1,0.435992,0,-99.691463,1821.496512)">
                    <path d="M500.502,368.729C565.394,368.729 618,427.5 618,499.998L618,500.002C618,572.5 565.394,631.271 500.502,631.271L383,631.271L383,499.998C383,427.5 435.606,368.729 500.498,368.729L500.502,368.729Z" style="fill:none;stroke:black;stroke-width:79.03px;"/>
                </g>
                <g transform="matrix(-0.487092,-0,0,-0.895093,362.094345,2238.542777)">
                    <path d="M500.502,368.729C565.394,368.729 618,427.5 618,499.998L618,500.002C618,572.5 565.394,631.271 500.502,631.271L383,631.271L383,499.998C383,427.5 435.606,368.729 500.498,368.729L500.502,368.729Z" style="fill:none;stroke:black;stroke-width:79.03px;"/>
                </g>
                <g transform="matrix(-0,1,-0.435992,-0,565.23427,1290.496512)">
                    <path d="M500.502,368.729C565.394,368.729 618,427.5 618,499.998L618,500.002C618,572.5 565.394,631.271 500.502,631.271L383,631.271L383,499.998C383,427.5 435.606,368.729 500.498,368.729L500.502,368.729Z" style="fill:none;stroke:black;stroke-width:79.03px;"/>
                </g>
            </g>
            <g transform="matrix(0.516613,0,0,1.060606,49.669002,-122.045455)">
                <path d="M788,1334.091L788,1818.909C788,1876.358 741.358,1923 683.909,1923L199.091,1923C141.642,1923 95,1876.358 95,1818.909L95,1334.091C95,1276.642 141.642,1230 199.091,1230L683.909,1230C741.358,1230 788,1276.642 788,1334.091Z" style="fill:none;stroke:black;stroke-width:47.14px;"/>
            </g>
            <g transform="matrix(0.516613,0,0,1.060606,494.161903,-122.045455)">
                <path d="M788,1334.091L788,1818.909C788,1876.358 741.358,1923 683.909,1923L199.091,1923C141.642,1923 95,1876.358 95,1818.909L95,1334.091C95,1276.642 141.642,1230 199.091,1230L683.909,1230C741.358,1230 788,1276.642 788,1334.091Z" style="fill:none;stroke:black;stroke-width:47.14px;"/>
            </g>
            <g transform="matrix(0.554159,0,0,1,-70.574522,2.821669)">
                <path d="M1252.345,1792.497L1252.345,1310.678L1310.69,1310.678L1310.69,1549.705L1316.337,1549.705L1532.778,1310.678L1609.004,1310.678L1406.678,1528.061L1609.004,1792.497L1538.425,1792.497L1370.918,1568.526L1310.69,1636.282L1310.69,1792.497L1252.345,1792.497Z" style="fill-rule:nonzero;"/>
            </g>
        </g>
    </g>
</svg>
