<?xml version="1.0" encoding="UTF-8" standalone="no"?>
<!-- Created with Keyshape -->
<svg xmlns="http://www.w3.org/2000/svg" shape-rendering="geometricPrecision" text-rendering="geometricPrecision" viewBox="0 0 320 135" style="white-space: pre;">
    <style>
@keyframes copy_t { 0% { transform: translate(33.3921px,51.31185px) rotate(180deg) scale(0.740741,0.740741) translate(-1873px,-5919px); animation-timing-function: cubic-bezier(0,0,0.58,1); } 33.3333% { transform: translate(99.396049px,51.308072px) rotate(180deg) scale(0.740741,0.740741) translate(-1873px,-5919px); } 50% { transform: translate(99.396px,51.311847px) rotate(180deg) scale(0.740741,0.740741) translate(-1873px,-5919px); animation-timing-function: cubic-bezier(0.175,0.885,0.563866,1); } 56.6666% { transform: translate(33.3921px,51.31185px) rotate(180deg) scale(0.740741,0.740741) translate(-1873px,-5919px); animation-timing-function: cubic-bezier(0.309896,0,0.636584,1); } 63.3333% { transform: translate(38.604012px,51.311849px) rotate(180deg) scale(0.740741,0.740741) translate(-1873px,-5919px); animation-timing-function: cubic-bezier(0.295461,0.023255,0.696727,1); } 73.3333% { transform: translate(30.604008px,51.311849px) rotate(180deg) scale(0.740741,0.740741) translate(-1873px,-5919px); } 100% { transform: translate(30.604px,51.311847px) rotate(180deg) scale(0.740741,0.740741) translate(-1873px,-5919px); } }
@keyframes copy_o { 0% { opacity: 0; } 33.3333% { opacity: 1; } 50% { opacity: 1; } 56.6667% { opacity: 0; } 100% { opacity: 0; } }
@keyframes a0_t { 0% { transform: translate(82.596043px,53.880001px); animation-timing-function: cubic-bezier(0,0,0.58,1); } 33.3333% { transform: translate(148.599992px,53.883291px); } 50% { transform: translate(148.6px,53.879998px); animation-timing-function: cubic-bezier(0.175,0.885,0.654056,1); } 56.6666% { transform: translate(82.517918px,53.880002px); animation-timing-function: cubic-bezier(0.423804,0,0.521417,0); } 63.3333% { transform: translate(90.596046px,53.88px); animation-timing-function: cubic-bezier(0.362641,0,0.627694,1); } 73.3333% { transform: translate(82.459324px,53.88px); } 100% { transform: translate(82.4593px,53.879998px); } }
    </style>
    <path id="copy" d="M1851.84,5913.1C1852.29,5910.21,1854.77,5908,1857.8,5908L1885.97,5908C1889.3,5908,1892,5910.7,1892,5914.03L1892,5942.2C1892,5945.23,1889.79,5947.71,1886.9,5948.16C1886.6,5948.22,1886.28,5948.23,1885.97,5948.23L1857.8,5948.23C1854.47,5948.23,1851.77,5945.53,1851.77,5942.2L1851.77,5914.03C1851.77,5913.72,1851.78,5913.4,1851.84,5913.1ZM1846.73,5922.09L1846.73,5947.23C1846.73,5950.56,1849.44,5953.27,1852.77,5953.27L1877.91,5953.27L1877.91,5956.29C1877.91,5959.62,1875.21,5962.32,1871.88,5962.32L1843.71,5962.32C1840.38,5962.32,1837.68,5959.62,1837.68,5956.29L1837.68,5928.12C1837.68,5924.79,1840.38,5922.09,1843.71,5922.09L1846.73,5922.09Z" opacity="0" transform="translate(33.3921,51.3118) rotate(180) scale(0.740741,0.740741) translate(-1873,-5919)" style="animation: 3s linear infinite both copy_t, 3s linear infinite both copy_o;"/>
    <rect width="157.562" height="13.8204" fill="#000000" rx="5" stroke="none" transform="translate(124.8,78.6796) translate(-42.204,-5.5)"/>
    <rect width="78.7813" height="13.8204" fill="#000000" rx="5" stroke="none" transform="translate(124.8,105.286) translate(-42.204,-5.5)"/>
    <path fill="#000000" stroke="none" d="M1.875,0L1.875,-29.0909L9.77273,-29.0909L9.77273,-17.7273L20.2273,-17.7273L20.2273,-29.0909L28.125,-29.0909L28.125,0L20.2273,0L20.2273,-11.3636L9.77273,-11.3636L9.77273,0ZM42.0526,0.397727C39.723,0.397727,37.7178,-0.0497159,36.0369,-0.944602C34.3561,-1.83949,33.0634,-3.12737,32.1591,-4.80824C31.2547,-6.48911,30.8026,-8.50379,30.8026,-10.8523C30.8026,-13.1061,31.2571,-15.0758,32.1662,-16.7614C33.0753,-18.447,34.3584,-19.7585,36.0156,-20.696C37.6728,-21.6335,39.6283,-22.1023,41.8821,-22.1023C43.5298,-22.1023,45.0213,-21.8466,46.3565,-21.3352C47.6918,-20.8239,48.8329,-20.0829,49.7798,-19.1122C50.7268,-18.1416,51.456,-16.965,51.9673,-15.5824C52.4787,-14.1998,52.7344,-12.642,52.7344,-10.9091L52.7344,-9.09091L33.2457,-9.09091L33.2457,-13.4091L45.5185,-13.4091C45.509,-14.0341,45.3504,-14.5857,45.0426,-15.0639C44.7348,-15.5421,44.3229,-15.9162,43.8068,-16.1861C43.2907,-16.456,42.706,-16.5909,42.0526,-16.5909C41.4181,-16.5909,40.8357,-16.456,40.3054,-16.1861C39.7751,-15.9162,39.3513,-15.5445,39.0341,-15.071C38.7169,-14.5975,38.5488,-14.0436,38.5298,-13.4091L38.5298,-8.75C38.5298,-8.04924,38.6766,-7.42424,38.9702,-6.875C39.2637,-6.32576,39.6851,-5.89489,40.2344,-5.58239C40.7836,-5.26989,41.4465,-5.11364,42.223,-5.11364C42.7628,-5.11364,43.2576,-5.18939,43.7074,-5.34091C44.1572,-5.49242,44.5431,-5.71259,44.8651,-6.00142C45.187,-6.29025,45.4238,-6.63826,45.5753,-7.04545L52.7344,-7.04545C52.4882,-5.5303,51.9058,-4.21638,50.9872,-3.10369C50.0687,-1.991,48.8542,-1.12926,47.3438,-0.518466C45.8333,0.0923295,44.0696,0.397727,42.0526,0.397727ZM60.9744,0.340909C59.5824,0.340909,58.3537,0.111269,57.2884,-0.348011C56.223,-0.807292,55.3873,-1.50568,54.7812,-2.44318C54.1752,-3.38068,53.8722,-4.57386,53.8722,-6.02273C53.8722,-7.21591,54.0758,-8.23627,54.483,-9.08381C54.8902,-9.93134,55.4583,-10.625,56.1875,-11.1648C56.9167,-11.7045,57.7666,-12.1165,58.7372,-12.4006C59.7079,-12.6847,60.7566,-12.8693,61.8835,-12.9545C63.1051,-13.0492,64.0876,-13.1652,64.831,-13.3026C65.5743,-13.4399,66.1117,-13.634,66.4432,-13.8849C66.7746,-14.1359,66.9403,-14.4697,66.9403,-14.8864L66.9403,-14.9432C66.9403,-15.5114,66.7225,-15.947,66.2869,-16.25C65.8513,-16.553,65.2926,-16.7045,64.6108,-16.7045C63.8627,-16.7045,63.2543,-16.5412,62.7855,-16.2145C62.3168,-15.8878,62.035,-15.3883,61.9403,-14.7159L54.7244,-14.7159C54.8191,-16.0417,55.2429,-17.2656,55.9957,-18.3878C56.7486,-19.5099,57.8494,-20.4096,59.2983,-21.0866C60.7472,-21.7637,62.5559,-22.1023,64.7244,-22.1023C66.2869,-22.1023,67.6884,-21.92,68.929,-21.5554C70.1695,-21.1908,71.2254,-20.6842,72.0966,-20.0355C72.9678,-19.3868,73.6331,-18.6293,74.0923,-17.7628C74.5516,-16.8963,74.7812,-15.9564,74.7812,-14.9432L74.7812,0L67.4517,0L67.4517,-3.06818L67.2812,-3.06818C66.8456,-2.25379,66.3177,-1.59564,65.6974,-1.09375C65.0772,-0.591856,64.3717,-0.227273,63.581,0C62.7902,0.227273,61.9214,0.340909,60.9744,0.340909ZM63.5312,-4.60227C64.1278,-4.60227,64.6889,-4.72538,65.2145,-4.97159C65.7401,-5.2178,66.1686,-5.57292,66.5,-6.03693C66.8314,-6.50095,66.9972,-7.06439,66.9972,-7.72727L66.9972,-9.54545C66.7888,-9.46023,66.5687,-9.37974,66.3366,-9.30398C66.1046,-9.22822,65.8584,-9.1572,65.598,-9.09091C65.3376,-9.02462,65.063,-8.96307,64.7741,-8.90625C64.4853,-8.84943,64.1847,-8.79735,63.8722,-8.75C63.2661,-8.6553,62.7713,-8.50142,62.3878,-8.28835C62.0043,-8.07528,61.7202,-7.81487,61.5355,-7.5071C61.3509,-7.19934,61.2585,-6.85606,61.2585,-6.47727C61.2585,-5.87121,61.4716,-5.4072,61.8977,-5.08523C62.3239,-4.76326,62.8684,-4.60227,63.5312,-4.60227ZM85.3551,0.284091C83.8021,0.284091,82.3745,-0.123106,81.0724,-0.9375C79.7704,-1.75189,78.7287,-2.98769,77.9474,-4.64489C77.1662,-6.30208,76.7756,-8.39015,76.7756,-10.9091C76.7756,-13.5417,77.1851,-15.6818,78.0043,-17.3295C78.8234,-18.9773,79.884,-20.1847,81.1861,-20.9517C82.4882,-21.7188,83.8589,-22.1023,85.2983,-22.1023C86.3778,-22.1023,87.3248,-21.9152,88.1392,-21.5412C88.9536,-21.1671,89.6354,-20.67,90.1847,-20.0497C90.7339,-19.4295,91.1506,-18.75,91.4347,-18.0114L91.5483,-18.0114L91.5483,-29.0909L99.3892,-29.0909L99.3892,0L91.6051,0L91.6051,-3.57955L91.4347,-3.57955C91.1316,-2.84091,90.6984,-2.1804,90.1349,-1.59801C89.5715,-1.01562,88.8897,-0.556345,88.0895,-0.22017C87.2893,0.116004,86.3778,0.284091,85.3551,0.284091ZM88.2528,-5.73864C88.9725,-5.73864,89.5904,-5.94934,90.1065,-6.37074C90.6226,-6.79214,91.0204,-7.38873,91.2997,-8.16051C91.5791,-8.93229,91.7188,-9.84848,91.7188,-10.9091C91.7188,-11.9886,91.5791,-12.9143,91.2997,-13.6861C91.0204,-14.4579,90.6226,-15.0497,90.1065,-15.4616C89.5904,-15.8736,88.9725,-16.0795,88.2528,-16.0795C87.5331,-16.0795,86.92,-15.8736,86.4134,-15.4616C85.9067,-15.0497,85.5185,-14.4579,85.2486,-13.6861C84.9787,-12.9143,84.8438,-11.9886,84.8438,-10.9091C84.8438,-9.82955,84.9787,-8.90388,85.2486,-8.1321C85.5185,-7.36032,85.9067,-6.76847,86.4134,-6.35653C86.92,-5.9446,87.5331,-5.73864,88.2528,-5.73864ZM102.286,0L102.286,-21.8182L110.126,-21.8182L110.126,0ZM106.213,-24.0909C105.148,-24.0909,104.236,-24.4415,103.479,-25.1426C102.721,-25.8437,102.342,-26.6865,102.342,-27.6709C102.342,-28.6555,102.722,-29.4981,103.481,-30.1989C104.24,-30.8996,105.148,-31.25,106.206,-31.25C107.276,-31.25,108.188,-30.8994,108.94,-30.1983C109.693,-29.4972,110.07,-28.6544,110.07,-27.67C110.07,-26.6855,109.693,-25.8428,108.94,-25.142C108.188,-24.4413,107.278,-24.0909,106.213,-24.0909ZM119.611,-12.2727L119.611,0L111.77,0L111.77,-21.8182L119.213,-21.8182L119.213,-17.6705L119.44,-17.6705C119.914,-19.053,120.75,-20.1373,121.947,-20.9233C123.145,-21.7093,124.545,-22.1023,126.145,-22.1023C127.688,-22.1023,129.031,-21.7495,130.172,-21.044C131.313,-20.3385,132.198,-19.3703,132.828,-18.1392C133.458,-16.9081,133.768,-15.5019,133.759,-13.9205L133.759,0L125.918,0L125.918,-12.2727C125.927,-13.3523,125.655,-14.1998,125.101,-14.8153C124.547,-15.4309,123.777,-15.7386,122.793,-15.7386C122.149,-15.7386,121.588,-15.599,121.109,-15.3196C120.631,-15.0402,120.264,-14.6425,120.009,-14.1264C119.753,-13.6103,119.62,-12.9924,119.611,-12.2727ZM145.688,8.63636C143.5,8.63636,141.627,8.32623,140.07,7.70597C138.512,7.0857,137.304,6.23343,136.447,5.14915C135.59,4.06487,135.11,2.82197,135.006,1.42045L142.562,1.42045C142.638,1.88447,142.828,2.25852,143.131,2.54261C143.434,2.8267,143.824,3.03267,144.303,3.16051C144.781,3.28835,145.318,3.35227,145.915,3.35227C146.928,3.35227,147.768,3.10606,148.436,2.61364C149.104,2.12121,149.438,1.23106,149.438,-0.0568182L149.438,-3.75L149.21,-3.75C148.926,-3.01136,148.491,-2.384,147.903,-1.8679C147.316,-1.3518,146.611,-0.958807,145.787,-0.68892C144.963,-0.419034,144.059,-0.284091,143.074,-0.284091C141.521,-0.284091,140.093,-0.643939,138.791,-1.36364C137.489,-2.08333,136.447,-3.22443,135.666,-4.78693C134.885,-6.34943,134.494,-8.39015,134.494,-10.9091C134.494,-13.5417,134.904,-15.6818,135.723,-17.3295C136.542,-18.9773,137.603,-20.1847,138.905,-20.9517C140.207,-21.7188,141.578,-22.1023,143.017,-22.1023C144.097,-22.1023,145.044,-21.9152,145.858,-21.5412C146.672,-21.1671,147.354,-20.67,147.903,-20.0497C148.453,-19.4295,148.869,-18.75,149.153,-18.0114L149.324,-18.0114L149.324,-21.8182L157.165,-21.8182L157.165,-0.0568182C157.165,1.78977,156.689,3.35938,155.737,4.65199C154.786,5.9446,153.448,6.93182,151.724,7.61364C150.001,8.29545,147.989,8.63636,145.688,8.63636ZM145.972,-5.85227C146.691,-5.85227,147.309,-6.0535,147.825,-6.45597C148.341,-6.85843,148.739,-7.43608,149.018,-8.18892C149.298,-8.94176,149.438,-9.84848,149.438,-10.9091C149.438,-11.9886,149.298,-12.9143,149.018,-13.6861C148.739,-14.4579,148.341,-15.0497,147.825,-15.4616C147.309,-15.8736,146.691,-16.0795,145.972,-16.0795C145.252,-16.0795,144.639,-15.8736,144.132,-15.4616C143.625,-15.0497,143.237,-14.4579,142.967,-13.6861C142.697,-12.9143,142.562,-11.9886,142.562,-10.9091C142.562,-9.82955,142.697,-8.91335,142.967,-8.16051C143.237,-7.40767,143.625,-6.83475,144.132,-6.44176C144.639,-6.04877,145.252,-5.85227,145.972,-5.85227Z" fill-rule="nonzero" transform="translate(82.596,53.88)" style="animation: 3s linear infinite both a0_t;"/>
</svg>
