<?xml version="1.0" encoding="UTF-8"?>
<svg width="171px" height="171px" viewBox="0 0 171 171" version="1.1" xmlns="http://www.w3.org/2000/svg" xmlns:xlink="http://www.w3.org/1999/xlink">
    <title>256x256@1x</title>
    <g id="256x256" stroke="none" stroke-width="1" fill="none" fill-rule="evenodd">
        <g id="Group" transform="translate(0, 10)" fill="#FFA300">
            <path d="M93.1011884,1.58820291 C96.3913357,3.04087029 99.0591652,5.39667296 100.704239,8.30200772 L169.201439,129.273671 C173.400488,136.689535 169.996486,145.707154 161.598389,149.415086 C159.237716,150.457371 156.63465,151 153.995338,151 L17.0009377,151 C7.61157908,151 0,144.278664 0,135.987476 C0,133.656855 0.614500453,131.358242 1.79483675,129.273671 L70.292037,8.30200772 C74.4910858,0.886143705 84.7030907,-2.11972909 93.1011884,1.58820291 Z M78.4110849,31.7402993 L26.9262296,122.54752 C25.0194774,125.910584 26.2000514,130.182614 29.5631155,132.089366 C30.6158762,132.686249 31.8054,133 33.0155957,133 L135.984497,133 C139.850491,133 142.984497,129.865993 142.984497,126 C142.984497,124.78982 142.670754,123.600312 142.073887,122.547561 L90.5898405,31.7403404 C88.683111,28.3772635 84.4110888,27.1966607 81.0480119,29.1033902 C79.946769,29.7277506 79.0354528,30.6390607 78.4110849,31.7402993 Z" id="Triangle" fill-rule="nonzero"></path>
            <rect id="Rectangle" x="76" y="52.9770496" width="18" height="45.9206614" rx="8"></rect>
            <rect id="Rectangle-Copy" x="76" y="107.728607" width="18" height="15.8956136" rx="7.94780679"></rect>
        </g>
    </g>
</svg>